<?xml version="1.0" encoding="iso-8859-1"?>
<!-- Generator: Adobe Illustrator 19.0.0, SVG Export Plug-In . SVG Version: 6.00 Build 0)  -->
<svg version="1.1" id="Layer_1" xmlns="http://www.w3.org/2000/svg" xmlns:xlink="http://www.w3.org/1999/xlink" x="0px" y="0px"
	 viewBox="0 0 224 224" style="enable-background:new 0 0 224 224;" xml:space="preserve">
<g>
	<g>
		<g>
			<path d="M82,212c6.617,0,12-5.383,12-12s-5.383-12-12-12s-12,5.383-12,12S75.383,212,82,212z M82,196c2.205,0,4,1.795,4,4
				s-1.795,4-4,4s-4-1.795-4-4S79.795,196,82,196z"/>
			<path d="M203.789,100.422l-32-16c-1.24-0.617-2.713-0.553-3.892,0.176C166.719,85.326,166,86.613,166,88v12h-24V12.016
				C142,5.391,136.629,0,130.027,0H29.973C23.371,0,18,5.391,18,12.016V176v7.904v28.098C18,218.617,23.371,224,29.973,224h100.055
				c6.601,0,11.972-5.383,11.972-11.998v-28.098V176v-68h24v12c0,1.387,0.719,2.674,1.896,3.402C168.539,123.799,169.27,124,170,124
				c0.611,0,1.225-0.141,1.789-0.422l32-16C205.144,106.9,206,105.516,206,104S205.144,101.1,203.789,100.422z M134,212.002
				c0,2.205-1.781,3.998-3.973,3.998H29.973c-2.229,0-3.973-1.756-3.973-3.998V184h108V212.002z M134,100H98v8h36v67.904H26V12.016
				C26,9.801,27.781,8,29.973,8h100.055C132.219,8,134,9.801,134,12.016V100z M174,113.527V94.472L193.057,104L174,113.527z"/>
		</g>
	</g>
</g>
<g>
</g>
<g>
</g>
<g>
</g>
<g>
</g>
<g>
</g>
<g>
</g>
<g>
</g>
<g>
</g>
<g>
</g>
<g>
</g>
<g>
</g>
<g>
</g>
<g>
</g>
<g>
</g>
<g>
</g>
</svg>
